{
  "accessors": [
    {
      "bufferView": 2,
      "componentType": 5126,
      "count": 7661,
      "max": [
        1000.0,
        1000.0,
        182.72299194335938
      ],
      "min": [
        0.0,
        -0.0,
        5.434000015258789
      ],
      "type": "VEC3"
    },
    {
      "bufferView": 2,
      "byteOffset": 91932,
      "componentType": 5126,
      "count": 7661,
      "max": [
        0.9140979051589966,
        1.0,
        0.9999979734420776
      ],
      "min": [
        -0.8773863911628723,
        -0.8713058233261108,
        0.0
      ],
      "type": "VEC3"
    },
    {
      "bufferView": 3,
      "componentType": 5126,
      "count": 7661,
      "max": [
        0.9999999403953552,
        0.3098815977573395,
        1.0,
        1.0
      ],
      "min": [
        0.0,
        -0.855654239654541,
        -0.9236910939216614,
        -1.0
      ],
      "type": "VEC4"
    },
    {
      "bufferView": 1,
      "componentType": 5126,
      "count": 7661,
      "max": [
        1.0,
        1.0
      ],
      "min": [
        0.0,
        0.0
      ],
      "type": "VEC2"
    },
    {
      "bufferView": 0,
      "componentType": 5125,
      "count": 43800,
      "type": "SCALAR"
    }
  ],
  "asset": {
    "extras": {
      "author": "Kris Teper (https://sketchfab.com/tepcio)",
      "license": "CC-BY-4.0 (http://creativecommons.org/licenses/by/4.0/)",
      "source": "https://sketchfab.com/3d-models/free-quick-terrain-test-b0ad92e85bf242d9bf24009a40b4e4d2",
      "title": "*Free* Quick terrain test"
    },
    "generator": "Sketchfab-12.67.0",
    "version": "2.0"
  },
  "bufferViews": [
    {
      "buffer": 0,
      "byteLength": 175200,
      "name": "floatBufferViews",
      "target": 34963
    },
    {
      "buffer": 0,
      "byteLength": 61288,
      "byteOffset": 175200,
      "byteStride": 8,
      "name": "floatBufferViews",
      "target": 34962
    },
    {
      "buffer": 0,
      "byteLength": 183864,
      "byteOffset": 236488,
      "byteStride": 12,
      "name": "floatBufferViews",
      "target": 34962
    },
    {
      "buffer": 0,
      "byteLength": 122576,
      "byteOffset": 420352,
      "byteStride": 16,
      "name": "floatBufferViews",
      "target": 34962
    }
  ],
  "buffers": [
    {
      "byteLength": 542928,
      "uri": "scene.bin"
    }
  ],
  "images": [
    {
      "uri": "textures/diffuse_1SG_baseColor.jpeg"
    },
    {
      "uri": "textures/diffuse_1SG_normal.png"
    }
  ],
  "materials": [
    {
      "doubleSided": true,
      "name": "diffuse_1SG",
      "normalTexture": {
        "index": 1
      },
      "pbrMetallicRoughness": {
        "baseColorTexture": {
          "index": 0
        },
        "metallicFactor": 0.0,
        "roughnessFactor": 0.6
      }
    }
  ],
  "meshes": [
    {
      "name": "Object_0",
      "primitives": [
        {
          "attributes": {
            "NORMAL": 1,
            "POSITION": 0,
            "TANGENT": 2,
            "TEXCOORD_0": 3
          },
          "indices": 4,
          "material": 0,
          "mode": 4
        }
      ]
    }
  ],
  "nodes": [
    {
      "children": [
        1
      ],
      "matrix": [
        1.0,
        0.0,
        0.0,
        0.0,
        0.0,
        2.220446049250313e-16,
        -1.0,
        0.0,
        0.0,
        1.0,
        2.220446049250313e-16,
        0.0,
        0.0,
        0.0,
        0.0,
        1.0
      ],
      "name": "Sketchfab_model"
    },
    {
      "children": [
        2
      ],
      "name": "8842eed260aa4dad81773d51ca9066fb.obj.cleaner"
    },
    {
      "mesh": 0,
      "name": "Object_2"
    }
  ],
  "samplers": [
    {
      "magFilter": 9729,
      "minFilter": 9987,
      "wrapS": 10497,
      "wrapT": 10497
    }
  ],
  "scene": 0,
  "scenes": [
    {
      "name": "Sketchfab_Scene",
      "nodes": [
        0
      ]
    }
  ],
  "textures": [
    {
      "sampler": 0,
      "source": 0
    },
    {
      "sampler": 0,
      "source": 1
    }
  ]
}
